# xmcd CD database file
#
# Track frame offsets:
#	150
#	81932
#	118042
#	175987
#	214592
#	231520
#	254910
#
# Disc length: 3744 seconds
#
# Revision: 0
# Processed by: cddbd v1.4PL0 Copyright (c) Steve Scherf et al.
# Submitted via: CDex 1.50
#
DISCID=660e9e07
DTITLE=Borah Bergman - Roscoe Mitchell with Thomas Buckner - First Meeting
DYEAR=1995
DGENRE=Jazz
TTITLE0=First Meeting
TTITLE1=Deep Delta
TTITLE2=Stone Mountain
TTITLE3=Clear Blue
TTITLE4=One Mind a) Looking In
TTITLE5=One Mind b) Looking Out
TTITLE6=One Mind c) Looking Around
EXTD=YEAR: 1995
EXTT0=
EXTT1=
EXTT2=
EXTT3=
EXTT4=
EXTT5=
EXTT6=
PLAYORDER=
